# xmcd
#
# Track frame offsets:
#	150
#	15627
#	28105
#	47095
#	67935
#	84425
#	103087
#	119592
#	136340
#	151882
#	165187
#
# Disc length: 2494 seconds
#
# Revision: 1
# Processed by: cddbd v1.5.2PL0 Copyright (c) Steve Scherf et al.
# Submitted via: audiograbber 1.83.01
#
DISCID=8209bc0b
DTITLE=SONNY TERRY and BROWNIE McGHEE - CONVERSATION WITH THE RIVER
DYEAR=1991
DGENRE=Blues
TTITLE0=I CAN'T SEE WHY MY BABY DON'T WRITE TO ME
TTITLE1=CONVERSATION WITH THE RIVER
TTITLE2=I FEEL SO GOOD
TTITLE3=DIFFERENT BLUES
TTITLE4=GOING TO CANSAS CITY
TTITLE5=FREIGTH TRAIN
TTITLE6=SWEETHEART
TTITLE7=I GOT MY EYES ON YOU
TTITLE8=I LOVE YOU, BABY, PLEASE DON'T GO
TTITLE9=MEAN WOMAN BLUES
TTITLE10=BLUES, BLUES, BLUES
EXTD=
EXTT0=
EXTT1=
EXTT2=
EXTT3=
EXTT4=
EXTT5=
EXTT6=
EXTT7=
EXTT8=
EXTT9=
EXTT10=
PLAYORDER=
